<svg width="16" height="22" viewBox="0 0 16 22" fill="none" xmlns="http://www.w3.org/2000/svg">
<path d="M13.0887 6.89172H12.4825V4.65454C12.4825 2.09594 10.3999 0.0146484 7.8396 0.0146484C7.83926 0.0146484 7.83891 0.0146918 7.83856 0.0146918C7.83822 0.0146918 7.83787 0.0146484 7.83752 0.0146484C5.27727 0.0146484 3.19464 2.09594 3.19464 4.65454V6.89172H2.59883C1.24772 6.89172 0.148438 7.9576 0.148438 9.26775V18.9648C0.148438 20.2749 1.24772 21.3408 2.59883 21.3408H13.0887C14.4396 21.3408 15.5388 20.2749 15.5388 18.9648V9.26775C15.5388 7.9576 14.4396 6.89172 13.0887 6.89172ZM4.57056 4.65454C4.57056 2.8551 6.03656 1.39114 7.83856 1.39062C9.64056 1.39114 11.1066 2.8551 11.1066 4.65454V6.89172H4.57056V4.65454ZM14.1628 18.9648C14.1628 19.5147 13.6819 19.9649 13.0887 19.9649H2.59883C2.00268 19.9649 1.52436 19.516 1.52436 18.9648V9.26775C1.52436 8.7139 2.00268 8.26756 2.59883 8.26756H13.0887C13.6819 8.26756 14.1628 8.7139 14.1628 9.26775V18.9648Z" fill="#9D9D9D"/>
<path d="M7.8448 11.5684C7.00324 11.5684 6.32031 12.2489 6.32031 13.0954C6.32031 13.6377 6.61952 14.0931 7.05184 14.3642V15.8733C7.05184 16.3107 7.40745 16.6638 7.8448 16.6638C8.28215 16.6638 8.64019 16.3094 8.64019 15.8733V14.3642C9.06991 14.0918 9.37189 13.6377 9.37189 13.0954C9.37189 12.2489 8.68879 11.5684 7.8448 11.5684Z" fill="#9D9D9D"/>
</svg>
