<svg width="17" height="16" viewBox="0 0 17 16" fill="none" xmlns="http://www.w3.org/2000/svg">
<path d="M8.38388 0.154297C4.18102 0.154297 0.761719 3.60507 0.761719 7.8466C0.761719 12.0881 4.18102 15.5389 8.38388 15.5389C12.5867 15.5389 16.006 12.0881 16.006 7.8466C16.006 3.60507 12.5867 0.154297 8.38388 0.154297ZM8.38388 14.0005C5.02175 14.0005 2.28615 11.2397 2.28615 7.8466C2.28615 4.45353 5.02175 1.69276 8.38388 1.69276C11.746 1.69276 14.4816 4.45353 14.4816 7.8466C14.4816 11.2397 11.746 14.0005 8.38388 14.0005Z" fill="#ED5466"/>
<path d="M9.14553 4H7.62109V8.61538H12.1944V7.07692H9.14553V4Z" fill="#ED5466"/>
</svg>
