<svg xmlns="http://www.w3.org/2000/svg" viewBox="0 0 487.09 869.81"><defs><style>.cls-1{fill:#ed5466;}</style></defs><g id="Calque_2" data-name="Calque 2"><g id="Calque_3" data-name="Calque 3"><path class="cls-1" d="M447.07,283.44q-40-40-104.39-40t-104.4,40q-40,40-40,104.4v87h.09V482q0,26.1-14.79,41.76t-38.27,15.66q-23.49,0-38.28-15.66T92.22,482V144.42q0-26.1,14.79-41.76T145.29,87q23.49,0,38.27,15.66t14.79,41.76v71.33h90.48V144.42q0-64.38-40-104.4T144.42,0Q80,0,40,40T0,144.42V482q0,64.38,40,104.39t104.4,40q64.37,0,104.39-40t40-104.39V395h-.09v-7.13q0-26.1,14.79-41.76t38.28-15.66q23.49,0,38.28,15.66t14.79,41.76V725.39q0,26.1-14.79,41.76t-38.28,15.66q-23.49,0-38.28-15.66t-14.79-41.76V654.05H198.26v71.34q0,64.38,40,104.4t104.4,40q64.4,0,104.39-40t40-104.4V387.84Q487.09,323.45,447.07,283.44Z"/></g></g></svg>