<svg width="21" height="21" viewBox="0 0 21 21" fill="none" xmlns="http://www.w3.org/2000/svg">
<path fill-rule="evenodd" clip-rule="evenodd" d="M12.9436 9.76925H15.7114C16.1311 9.76925 16.4608 9.42228 16.4608 9.00387C16.4608 8.57526 16.1311 8.23849 15.7114 8.23849H12.9436C12.5239 8.23849 12.1941 8.57526 12.1941 9.00387C12.1941 9.42228 12.5239 9.76925 12.9436 9.76925ZM18.9988 4.46363C19.6084 4.46363 20.0081 4.67793 20.4077 5.14737C20.8074 5.6168 20.8774 6.29034 20.7874 6.90162L19.8382 13.5962C19.6583 14.883 18.5792 15.8311 17.3102 15.8311H6.40865C5.07969 15.8311 3.98055 14.7912 3.87063 13.4441L2.95135 2.31954L1.44252 2.0542C1.04284 1.98277 0.763054 1.58477 0.832999 1.17657C0.902945 0.759178 1.29264 0.48262 1.70232 0.544871L4.08546 0.911234C4.4252 0.973485 4.67501 1.25821 4.70498 1.60518L4.89483 3.89112C4.92481 4.2187 5.18461 4.46363 5.50436 4.46363H18.9988ZM6.24858 17.444C5.40923 17.444 4.72976 18.1379 4.72976 18.9952C4.72976 19.8422 5.40923 20.5361 6.24858 20.5361C7.07793 20.5361 7.7574 19.8422 7.7574 18.9952C7.7574 18.1379 7.07793 17.444 6.24858 17.444ZM17.4898 17.444C16.6505 17.444 15.971 18.1379 15.971 18.9952C15.971 19.8422 16.6505 20.5361 17.4898 20.5361C18.3192 20.5361 18.9986 19.8422 18.9986 18.9952C18.9986 18.1379 18.3192 17.444 17.4898 17.444Z" fill="#AA9E9F"/>
</svg>
